<svg viewBox="0 0 1200 1600" xmlns="http://www.w3.org/2000/svg">
  <defs>
    <pattern id="diagonalHatch" patternUnits="userSpaceOnUse" width="8" height="8">
      <path d="M0,8 L8,0 M-2,2 L2,-2 M6,10 L10,6" stroke="#ccc" stroke-width="1"/>
    </pattern>
  </defs>

  <!-- Page Background -->
  <rect width="1200" height="1600" fill="#f8f8f8" stroke="#333" stroke-width="2"/>

  <!-- Header Section -->
  <!-- Top Utility Nav -->
  <rect x="0" y="0" width="1200" height="30" fill="none" stroke="#333" stroke-width="1"/>
  <text x="1100" y="20" font-family="sans-serif" font-size="12" text-anchor="end">FAQ | RESOURCES | TOOLS | CONTACT | NEWS</text>

  <!-- Main Header -->
  <rect x="0" y="30" width="1200" height="80" fill="none" stroke="#333" stroke-width="2"/>

  <!-- Logo Area -->
  <rect x="20" y="45" width="280" height="50" fill="url(#diagonalHatch)" stroke="#666" stroke-width="1" stroke-dasharray="5,5"/>
  <text x="160" y="75" font-family="sans-serif" font-size="12" text-anchor="middle" fill="#666">ORGANIZATION LOGO</text>

  <!-- Search Section -->
  <rect x="850" y="55" width="200" height="30" fill="none" stroke="#666" stroke-width="1" stroke-dasharray="3,3"/>
  <text x="950" y="75" font-family="sans-serif" font-size="12" text-anchor="middle" fill="#999">SEARCH BOX</text>
  <rect x="1060" y="55" width="60" height="30" fill="#ddd" stroke="#666" stroke-width="1"/>
  <text x="1090" y="75" font-family="sans-serif" font-size="12" text-anchor="middle">SEARCH</text>

  <!-- Main Navigation -->
  <rect x="0" y="110" width="1200" height="45" fill="#e8e8e8" stroke="#333" stroke-width="2"/>
  <line x1="150" y1="110" x2="150" y2="155" stroke="#333"/>
  <line x1="280" y1="110" x2="280" y2="155" stroke="#333"/>
  <line x1="420" y1="110" x2="420" y2="155" stroke="#333"/>
  <line x1="550" y1="110" x2="550" y2="155" stroke="#333"/>
  <line x1="720" y1="110" x2="720" y2="155" stroke="#333"/>
  <line x1="850" y1="110" x2="850" y2="155" stroke="#333"/>

  <text x="75" y="137" font-family="sans-serif" font-size="16" text-anchor="middle" font-weight="bold">PRODUCTS</text>
  <text x="215" y="137" font-family="sans-serif" font-size="16" text-anchor="middle" font-weight="bold">SERVICES</text>
  <text x="350" y="137" font-family="sans-serif" font-size="16" text-anchor="middle" font-weight="bold">SOLUTIONS</text>
  <text x="485" y="137" font-family="sans-serif" font-size="16" text-anchor="middle" font-weight="bold">SUPPORT</text>
  <text x="635" y="137" font-family="sans-serif" font-size="16" text-anchor="middle" font-weight="bold">RESOURCES</text>
  <text x="785" y="137" font-family="sans-serif" font-size="16" text-anchor="middle" font-weight="bold">LIBRARY</text>
  <text x="925" y="137" font-family="sans-serif" font-size="16" text-anchor="middle" font-weight="bold">ABOUT US</text>

  <!-- Notice Banner -->
  <rect x="0" y="155" width="1200" height="40" fill="#f5f5f5" stroke="#333" stroke-width="1"/>
  <text x="20" y="178" font-family="sans-serif" font-size="12">This organization is currently updating its policies and procedures. Please check back for the latest information regarding our services and programs. Thank you for your patience during this transition period.</text>

  <!-- Hero Image Section -->
  <rect x="0" y="195" width="1200" height="280" fill="url(#diagonalHatch)" stroke="#333" stroke-width="2"/>
  <text x="600" y="320" font-family="sans-serif" font-size="14" text-anchor="middle" fill="#666">HERO IMAGE AREA</text>
  <text x="600" y="340" font-family="sans-serif" font-size="12" text-anchor="middle" fill="#666">(Leadership team meeting)</text>
  <rect x="540" y="365" width="120" height="35" fill="#777" stroke="#333"/>
  <text x="600" y="387" font-family="sans-serif" font-size="12" text-anchor="middle" fill="white">LEARN MORE</text>

  <!-- Three Column Section -->
  <rect x="0" y="475" width="1200" height="350" fill="none" stroke="#333" stroke-width="2"/>

  <!-- Column 1: Spotlight -->
  <rect x="20" y="495" width="360" height="310" fill="#f8f8f8" stroke="#666" stroke-width="1"/>
  <rect x="20" y="495" width="360" height="30" fill="#666" stroke="#666"/>
  <text x="200" y="515" font-family="sans-serif" font-size="14" text-anchor="middle" fill="white" font-weight="bold">Spotlight</text>

  <!-- List items in Spotlight -->
  <!-- Spotlight bullets as circles to match Latest News -->
  <circle cx="30" cy="545" r="2" fill="#666"/>
  <text x="40" y="550" font-family="sans-serif" font-size="12" fill="#555">Leadership Team</text>
  <circle cx="30" cy="570" r="2" fill="#666"/>
  <text x="40" y="575" font-family="sans-serif" font-size="12" fill="#555">Strategic Initiatives</text>
  <circle cx="30" cy="595" r="2" fill="#666"/>
  <text x="40" y="600" font-family="sans-serif" font-size="12" fill="#555">New Programs</text>
  <circle cx="30" cy="620" r="2" fill="#666"/>
  <text x="40" y="625" font-family="sans-serif" font-size="12" fill="#555">Technology Updates</text>
  <circle cx="30" cy="645" r="2" fill="#666"/>
  <text x="40" y="650" font-family="sans-serif" font-size="12" fill="#555">Innovation Hub</text>
  <circle cx="30" cy="670" r="2" fill="#666"/>
  <text x="40" y="675" font-family="sans-serif" font-size="12" fill="#555">Compliance Requirements</text>
  <circle cx="30" cy="695" r="2" fill="#666"/>
  <text x="40" y="700" font-family="sans-serif" font-size="12" fill="#555">Annual Report</text>
  <circle cx="30" cy="720" r="2" fill="#666"/>
  <text x="40" y="725" font-family="sans-serif" font-size="12" fill="#555">Quality Assurance</text>
  <circle cx="30" cy="745" r="2" fill="#666"/>
  <text x="40" y="750" font-family="sans-serif" font-size="12" fill="#555">Partner Programs</text>
  <circle cx="30" cy="770" r="2" fill="#666"/>
  <text x="40" y="775" font-family="sans-serif" font-size="12" fill="#555">Resource Center</text>

  <!-- Column 2: Latest News -->
  <rect x="400" y="495" width="360" height="310" fill="#f8f8f8" stroke="#666" stroke-width="1"/>
  <rect x="400" y="495" width="360" height="30" fill="#666" stroke="#666"/>
  <text x="580" y="515" font-family="sans-serif" font-size="14" text-anchor="middle" fill="white" font-weight="bold">Latest News</text>

  <!-- News items -->
  <circle cx="415" cy="545" r="2" fill="#666"/>
  <text x="425" y="550" font-family="sans-serif" font-size="12" fill="#555">Organization Announces New Strategic Partnership with</text>
  <text x="425" y="565" font-family="sans-serif" font-size="12" fill="#555">Industry Leaders</text>

  <circle cx="415" cy="585" r="2" fill="#666"/>
  <text x="425" y="590" font-family="sans-serif" font-size="12" fill="#555">Quarterly Performance Report Shows 15% Growth</text>
  <text x="425" y="605" font-family="sans-serif" font-size="12" fill="#555">in Key Metrics</text>

  <circle cx="415" cy="625" r="2" fill="#666"/>
  <text x="425" y="630" font-family="sans-serif" font-size="12" fill="#555">New Training Program Launched to Enhance</text>
  <text x="425" y="645" font-family="sans-serif" font-size="12" fill="#555">Professional Development</text>

  <circle cx="415" cy="665" r="2" fill="#666"/>
  <text x="425" y="670" font-family="sans-serif" font-size="12" fill="#555">Technology Innovation Award Received for</text>
  <text x="425" y="685" font-family="sans-serif" font-size="12" fill="#555">Digital Transformation Initiative</text>

  <!-- Column 3: Events -->
  <rect x="780" y="495" width="400" height="310" fill="#f8f8f8" stroke="#666" stroke-width="1"/>
  <rect x="780" y="495" width="400" height="30" fill="#666" stroke="#666"/>
  <text x="980" y="515" font-family="sans-serif" font-size="14" text-anchor="middle" fill="white" font-weight="bold">Events</text>

  <!-- Event items with date boxes -->
  <rect x="795" y="540" width="50" height="50" fill="#777" stroke="#333"/>
  <text x="820" y="558" font-family="sans-serif" font-size="16" text-anchor="middle" fill="white" font-weight="bold">OCT</text>
  <text x="820" y="575" font-family="sans-serif" font-size="16" text-anchor="middle" fill="white" font-weight="bold">15</text>

  <text x="855" y="555" font-family="sans-serif" font-size="16" fill="#555" font-weight="bold">Public Meeting</text>
  <text x="855" y="568" font-family="sans-serif" font-size="12">General discussion on current</text>
  <text x="855" y="580" font-family="sans-serif" font-size="12">initiatives and community input.</text>

  <rect x="795" y="605" width="50" height="50" fill="#777" stroke="#333"/>
  <text x="820" y="623" font-family="sans-serif" font-size="16" text-anchor="middle" fill="white" font-weight="bold">OCT</text>
  <text x="820" y="640" font-family="sans-serif" font-size="16" text-anchor="middle" fill="white" font-weight="bold">22</text>

  <text x="855" y="620" font-family="sans-serif" font-size="16" fill="#555" font-weight="bold">Training Workshop</text>
  <text x="855" y="633" font-family="sans-serif" font-size="12">Professional development session</text>
  <text x="855" y="645" font-family="sans-serif" font-size="12">for staff and partners.</text>

  <rect x="795" y="670" width="50" height="50" fill="#777" stroke="#333"/>
  <text x="820" y="688" font-family="sans-serif" font-size="16" text-anchor="middle" fill="white" font-weight="bold">NOV</text>
  <text x="820" y="705" font-family="sans-serif" font-size="16" text-anchor="middle" fill="white" font-weight="bold">05</text>

  <text x="855" y="685" font-family="sans-serif" font-size="16" fill="#555" font-weight="bold">Annual Conference</text>
  <text x="855" y="698" font-family="sans-serif" font-size="12">Yearly gathering for stakeholders</text>
  <text x="855" y="710" font-family="sans-serif" font-size="12">and industry professionals.</text>

  <!-- Six Grid Section -->

  <!-- Row 1 -->
  <rect x="20" y="845" width="280" height="140" fill="url(#diagonalHatch)" stroke="#666"/>
  <text x="160" y="905" font-family="sans-serif" font-size="12" font-weight="bold" text-anchor="middle">Event Reports</text>
  <text x="160" y="925" font-family="sans-serif" font-size="12" text-anchor="middle" fill="#555">Summaries of recent events and meetings.</text>
  <rect x="105" y="945" width="110" height="20" rx="4" ry="4" fill="#666" stroke="#333"/>
  <text x="160" y="960" font-family="sans-serif" font-size="16" text-anchor="middle" fill="#fff">Learn more</text>

  <rect x="320" y="845" width="280" height="140" fill="url(#diagonalHatch)" stroke="#666"/>
  <text x="460" y="905" font-family="sans-serif" font-size="12" font-weight="bold" text-anchor="middle">Public Documents</text>
  <text x="460" y="925" font-family="sans-serif" font-size="12" text-anchor="middle" fill="#555">Access official publications and records.</text>
  <rect x="405" y="945" width="110" height="20" rx="4" ry="4" fill="#666" stroke="#333"/>
  <text x="460" y="960" font-family="sans-serif" font-size="16" text-anchor="middle" fill="#fff">Learn more</text>

  <rect x="620" y="845" width="280" height="140" fill="url(#diagonalHatch)" stroke="#666"/>
  <text x="760" y="905" font-family="sans-serif" font-size="12" font-weight="bold" text-anchor="middle">Open Government</text>
  <text x="760" y="925" font-family="sans-serif" font-size="12" text-anchor="middle" fill="#555">Transparency, data, and accountability.</text>
  <rect x="705" y="945" width="110" height="20" rx="4" ry="4" fill="#666" stroke="#333"/>
  <text x="760" y="960" font-family="sans-serif" font-size="16" text-anchor="middle" fill="#fff">Learn more</text>

  <rect x="920" y="845" width="260" height="140" fill="url(#diagonalHatch)" stroke="#666"/>
  <text x="1050" y="905" font-family="sans-serif" font-size="12" font-weight="bold" text-anchor="middle">eBilling</text>
  <text x="1050" y="925" font-family="sans-serif" font-size="12" text-anchor="middle" fill="#555">Pay invoices and manage billing online.</text>
  <rect x="995" y="945" width="110" height="20" rx="4" ry="4" fill="#666" stroke="#333"/>
  <text x="1050" y="960" font-family="sans-serif" font-size="16" text-anchor="middle" fill="#fff">Learn more</text>

  <!-- Row 2 -->
  <rect x="20" y="985" width="280" height="140" fill="url(#diagonalHatch)" stroke="#666"/>
  <text x="160" y="1045" font-family="sans-serif" font-size="12" font-weight="bold" text-anchor="middle">Emergency Procedures</text>
  <text x="160" y="1065" font-family="sans-serif" font-size="12" text-anchor="middle" fill="#555">Guidelines for critical situations.</text>
  <rect x="105" y="1085" width="110" height="20" rx="4" ry="4" fill="#666" stroke="#333"/>
  <text x="160" y="1100" font-family="sans-serif" font-size="16" text-anchor="middle" fill="#fff">Learn more</text>

  <rect x="320" y="985" width="280" height="140" fill="url(#diagonalHatch)" stroke="#666"/>
  <text x="460" y="1045" font-family="sans-serif" font-size="12" font-weight="bold" text-anchor="middle">Policy Updates</text>
  <text x="460" y="1065" font-family="sans-serif" font-size="12" text-anchor="middle" fill="#555">Latest policy changes and notices.</text>
  <rect x="405" y="1085" width="110" height="20" rx="4" ry="4" fill="#666" stroke="#333"/>
  <text x="460" y="1100" font-family="sans-serif" font-size="16" text-anchor="middle" fill="#fff">Learn more</text>

  <rect x="620" y="985" width="280" height="140" fill="url(#diagonalHatch)" stroke="#666"/>
  <text x="760" y="1045" font-family="sans-serif" font-size="12" font-weight="bold" text-anchor="middle">Digital Services</text>
  <text x="760" y="1065" font-family="sans-serif" font-size="12" text-anchor="middle" fill="#555">Online tools and self-service options.</text>
  <rect x="705" y="1085" width="110" height="20" rx="4" ry="4" fill="#666" stroke="#333"/>
  <text x="760" y="1100" font-family="sans-serif" font-size="16" text-anchor="middle" fill="#fff">Learn more</text>

  <rect x="920" y="985" width="260" height="140" fill="url(#diagonalHatch)" stroke="#666"/>
  <text x="1050" y="1045" font-family="sans-serif" font-size="12" font-weight="bold" text-anchor="middle">Information Digest</text>
  <text x="1050" y="1065" font-family="sans-serif" font-size="12" text-anchor="middle" fill="#555">Weekly highlights and briefings.</text>
  <rect x="995" y="1085" width="110" height="20" rx="4" ry="4" fill="#666" stroke="#333"/>
  <text x="1050" y="1100" font-family="sans-serif" font-size="16" text-anchor="middle" fill="#fff">Learn more</text>

  <!-- Row 3 -->
  <rect x="20" y="1125" width="280" height="135" fill="url(#diagonalHatch)" stroke="#666"/>
  <text x="160" y="1185" font-family="sans-serif" font-size="12" font-weight="bold" text-anchor="middle">Facility Locator</text>
  <text x="160" y="1205" font-family="sans-serif" font-size="12" text-anchor="middle" fill="#555">Find offices and service locations.</text>
  <rect x="105" y="1220" width="110" height="20" rx="4" ry="4" fill="#666" stroke="#333"/>
  <text x="160" y="1235" font-family="sans-serif" font-size="16" text-anchor="middle" fill="#fff">Learn more</text>

  <rect x="320" y="1125" width="280" height="135" fill="url(#diagonalHatch)" stroke="#666"/>
  <text x="460" y="1185" font-family="sans-serif" font-size="12" font-weight="bold" text-anchor="middle">eLearning Portal</text>
  <text x="460" y="1205" font-family="sans-serif" font-size="12" text-anchor="middle" fill="#555">Courses and training materials.</text>
  <rect x="405" y="1220" width="110" height="20" rx="4" ry="4" fill="#666" stroke="#333"/>
  <text x="460" y="1235" font-family="sans-serif" font-size="16" text-anchor="middle" fill="#fff">Learn more</text>

  <rect x="620" y="1125" width="280" height="135" fill="url(#diagonalHatch)" stroke="#666"/>
  <text x="760" y="1185" font-family="sans-serif" font-size="12" font-weight="bold" text-anchor="middle">Educational Resources</text>
  <text x="760" y="1205" font-family="sans-serif" font-size="12" text-anchor="middle" fill="#555">Guides, curricula, and materials.</text>
  <rect x="705" y="1220" width="110" height="20" rx="4" ry="4" fill="#666" stroke="#333"/>
  <text x="760" y="1235" font-family="sans-serif" font-size="16" text-anchor="middle" fill="#fff">Learn more</text>

  <rect x="920" y="1125" width="260" height="135" fill="url(#diagonalHatch)" stroke="#666"/>
  <text x="1050" y="1185" font-family="sans-serif" font-size="12" font-weight="bold" text-anchor="middle">Inspector General</text>
  <text x="1050" y="1205" font-family="sans-serif" font-size="12" text-anchor="middle" fill="#555">Reports and oversight information.</text>
  <rect x="995" y="1220" width="110" height="20" rx="4" ry="4" fill="#666" stroke="#333"/>
  <text x="1050" y="1235" font-family="sans-serif" font-size="16" text-anchor="middle" fill="#fff">Learn more</text>

  <!-- Footer -->
  <rect x="0" y="1280" width="1200" height="320" fill="#e8e8e8" stroke="#333" stroke-width="2"/>
  <text x="600" y="1310" font-family="sans-serif" font-size="14" text-anchor="middle" font-weight="bold">FOOTER SECTION</text>

  <!-- Footer columns -->
  <line x1="300" y1="1320" x2="300" y2="1580" stroke="#666"/>
  <line x1="600" y1="1320" x2="600" y2="1580" stroke="#666"/>
  <line x1="900" y1="1320" x2="900" y2="1580" stroke="#666"/>

  <text x="30" y="1335" font-family="sans-serif" font-size="12" text-anchor="start" font-weight="bold">HOME</text>
  <text x="330" y="1335" font-family="sans-serif" font-size="12" text-anchor="start" font-weight="bold">ABOUT US</text>
  <text x="630" y="1335" font-family="sans-serif" font-size="12" text-anchor="start" font-weight="bold">POPULAR DOCUMENTS</text>
  <text x="930" y="1335" font-family="sans-serif" font-size="12" text-anchor="start" font-weight="bold">SOCIAL MEDIA</text>

  <!-- Social media icons -->
  <circle cx="940" cy="1365" r="10" fill="#ddd" stroke="#666"/>
  <circle cx="980" cy="1365" r="10" fill="#ddd" stroke="#666"/>
  <circle cx="1020" cy="1365" r="10" fill="#ddd" stroke="#666"/>
  <circle cx="1060" cy="1365" r="10" fill="#ddd" stroke="#666"/>

  <!-- Footer links (simplified) -->
  <text x="30" y="1360" font-family="sans-serif" font-size="12">NEWS RELEASES</text>
  <text x="30" y="1375" font-family="sans-serif" font-size="12">EVENT REPORTS</text>
  <text x="30" y="1390" font-family="sans-serif" font-size="12">DOCUMENT LIBRARY</text>

  <text x="330" y="1360" font-family="sans-serif" font-size="12">STRATEGIC PLAN</text>
  <text x="330" y="1375" font-family="sans-serif" font-size="12">BUDGET &amp; PERFORMANCE</text>
  <text x="330" y="1390" font-family="sans-serif" font-size="12">AGENCY FINANCIAL REPORT</text>

  <text x="630" y="1360" font-family="sans-serif" font-size="12">INFO DIGEST</text>
  <text x="630" y="1375" font-family="sans-serif" font-size="12">FACT SHEETS &amp; BROCHURES</text>
  <text x="630" y="1390" font-family="sans-serif" font-size="12">FORMS</text>
</svg>
